<svg xmlns="http://www.w3.org/2000/svg" width="4in" height="4in" viewBox="0 0 288 288"><path fill="#fff" stroke="#231f20" stroke-miterlimit="10" stroke-width="9" d="M188.2 211.6H129c-9.1 0-32.5-6.4-32.5-15.5l-30-74A16.5 16.5 0 0 1 83 105.6h105.2a16.5 16.5 0 0 1 16.5 16.5v73a16.5 16.5 0 0 1-16.5 16.5z"/><path fill="#fff" stroke="#231f20" stroke-miterlimit="10" stroke-width="3" d="M99.7 144h21.7v14.6H99.7zm33.4 0h21.7v14.6h-21.7zm33.5 0h21.7v14.6h-21.7zm0 29.6h21.7v14.6h-21.7zm-33.5 0h21.7v14.6h-21.7zm-29.1 0h21.7v14.6H104z"/><path fill="#231f20" d="M72.1 114.4c-4.6-21.1-24.8-42.1-47.6-42.1-13.1.1-15.8 15.7-14.2 26 .8 4.8 3.2 10.5 8.4 11.8A7.8 7.8 0 0 0 25 109c2.5-1.8 2.5-4.9 4.6-6.8s-1.5-7.4-4.6-4.6c-1.2 1.1-1.5 2.6-2.5 3.7-3.1 3.3-4.9-.2-5.6-3a30.5 30.5 0 0 1 .5-13.1c1.8-6.4 6.5-6.9 12.4-5.6a42.2 42.2 0 0 1 9.8 3.4 48.6 48.6 0 0 1 26.3 33.2c.9 4 7.1 2.3 6.2-1.8zm71.5-7.9c13.3 4.5 27.2-3.5 34.3-14.8 4.6-7.1 6.9-15.4 8.6-23.5s2.3-16.1 6-23.1c7.9-15 42-12.3 41.7 7.5-.1 4-2.6 7.5-4.6 10.8a46.7 46.7 0 0 0-5.4 10.7c-2.6 7.5-2.9 15.7-2.8 23.7.2 16.2 2.8 38.6-13.3 48.7-3.5 2.2-.3 7.9 3.3 5.6 13.3-8.4 16.8-24.7 16.8-39.5.1-9.6-1.1-19.3.4-28.9a40 40 0 0 1 4.5-13.8c2.1-3.5 4.7-6.8 6.2-10.7 6.6-16.9-10.7-29.4-25.8-30-8.3-.3-17.7 1.3-23.4 7.9s-6.8 14.2-8.3 21.8c-2.1 10.6-4 21.9-10.3 30.8s-16.2 13.9-26.2 10.6c-4-1.4-5.7 4.9-1.7 6.2z"/><path fill="#231f20" d="M240.3 47a66.3 66.3 0 0 0 17.5 4l-1.3-9.6-14.8 3.4c-6.1 1.4-3.5 10.8 2.6 9.4l14.8-3.4c5.7-1.3 3.8-9-1.3-9.5a63.7 63.7 0 0 1-14.9-3.7c-5.9-2.2-8.4 7.2-2.6 9.4z"/><ellipse cx="110.6" cy="235.9" fill="none" stroke="#231f20" stroke-miterlimit="10" stroke-width="5" rx="16.1" ry="19.1"/><ellipse cx="199" cy="235.9" fill="none" stroke="#231f20" stroke-miterlimit="10" stroke-width="5" rx="16.1" ry="19.1"/></svg>