<svg xmlns="http://www.w3.org/2000/svg" width="4in" height="4in" viewBox="0 0 288 288"><path fill="#231f20" d="M66.5 199.5a176.1 176.1 0 0 0 52-72.6 178.5 178.5 0 0 0 10.6-43.8 169.5 169.5 0 0 0 1.1-22.5c-.2-7.7-.6-16-5.4-22.4-8.9-11.9-27.1-12.7-40.1-8.5S58.5 44.6 51 57.4c-16.4 27.8-15.2 64.4-9.5 95.1 7 37.8 24 73.2 44.8 105.2 4.1 6.3 14.2.5 10.1-5.9-16.5-25.4-30.5-52.7-38.8-82S46 110.9 53.4 82.6c3.4-13.3 9.9-26.2 21-34.6s25-12.5 36.7-6.4c6.7 3.5 7.1 10.6 7.3 17.4a170.4 170.4 0 0 1-.6 20.2 160.4 160.4 0 0 1-8.5 38.7 164.9 164.9 0 0 1-51.1 73.3c-5.8 4.8 2.5 13 8.3 8.3z"/><path fill="#231f20" d="M126.1 52.6l36.6 11.8V53.1l-33 11.7c-7.1 2.5-4.1 13.8 3.1 11.3l33-11.7a5.9 5.9 0 0 0 0-11.3l-36.5-11.8c-7.2-2.3-10.3 9-3.2 11.3z"/><circle cx="164.3" cy="125.7" r="24.9" fill="none" stroke="#231f20" stroke-miterlimit="10" stroke-width="10"/><path fill="#231f20" d="M139.9 138.5a205.8 205.8 0 0 1-24.8 19.9c-2.6 1.9-.1 6.2 2.5 4.4a244.7 244.7 0 0 0 25.9-20.7c2.3-2.2-1.2-5.7-3.6-3.6zm32.4-12.7h.1a1.5 1.5 0 0 1-.9-1.3 1.7 1.7 0 0 1 0-1.4c.1-.2.1-.3.1-.1l.3-.4c-.1.1-.3.2 0-.1s.2-.1.1 0l.4-.2a2.1 2.1 0 0 1 1.1 0 1.8 1.8 0 0 1 1.2 1c.2.5.3.7.2.4a2.4 2.4 0 0 0-3-1.7 2.5 2.5 0 0 0-1.8 3 2.8 2.8 0 0 0 2.1 2.1 3.1 3.1 0 0 0 2.8-.6 3.8 3.8 0 0 0 1.3-2.2 3 3 0 0 0-1.5-2.9 2.5 2.5 0 0 0-3.4.9 2.4 2.4 0 0 0 .9 3.4zm-10.1-9.7a9.1 9.1 0 0 1 8.7 1.4c2.5 2 6-1.5 3.5-3.5a14.4 14.4 0 0 0-13.5-2.8c-3.1 1-1.8 5.8 1.3 4.9z"/></svg>