<svg xmlns="http://www.w3.org/2000/svg" width="4in" height="4in" viewBox="0 0 288 288"><path fill="none" stroke="#231f20" stroke-miterlimit="10" stroke-width="6" d="M211.4 252H65.2L95.4 96H176l35.4 156z"/><path fill="#231f20" d="M101.7 94.8c4.1-9.5 4.5-20.3 9.2-29.6s17.2-14.3 28.1-14.7c6.3-.3 11.3 3.3 16.3 6.6s9.1 6.4 12 11.1c3.8 6.4 2.3 11.6.7 18.3-.9 4-.9 7.9 1.5 11.4s6.1.2 4.3-2.5c-3.9-5.8 1.8-13.6 1.1-20.1a25 25 0 0 0-6.1-13.4c-3.8-4.5-8.8-7.8-13.7-10.9s-9.9-5.8-16.1-5.5c-10.2.4-22.7 3.8-29.3 12.2-7.8 10-7.5 23.3-12.3 34.6-1.2 2.9 3.1 5.5 4.3 2.5zm48.2 112.1a71.4 71.4 0 0 1-23-35 64.6 64.6 0 0 1-2.7-20.9c.1-2.4-.1-5.2 1.8-7.1s4.5-2 6.7-2a17.2 17.2 0 0 1 10.8 4.3c12.2 9.9 11.3 30.1 8.5 43.9-3.1 15.4-10 29.6-18.4 42.7-1.8 2.7 2.6 5.2 4.3 2.5 8.2-12.7 15-26.5 18.4-41.3s4-29.1-2-41.8c-4.7-9.9-17.5-19.4-28.8-13.9-6 2.9-6.4 9.1-6.4 15a73.1 73.1 0 0 0 2.8 19.2 75.7 75.7 0 0 0 24.5 37.9c2.4 2.1 6-1.5 3.5-3.5z"/><path fill="#231f20" d="M119.5 142.8l-15.6 5.1a2.5 2.5 0 0 0 0 4.8l14.1 5c3.1 1.1 4.4-3.8 1.4-4.8l-14.2-5v4.8l15.7-5c3-1 1.7-5.9-1.4-4.9z"/></svg>