<svg xmlns="http://www.w3.org/2000/svg" width="4in" height="4in" viewBox="0 0 288 288"><path fill="none" stroke="#231f20" stroke-miterlimit="10" stroke-width="6" d="M92.2 87.4H63.4l-30.1 156h-1.6 51.8"/><path fill="none" stroke="#231f20" stroke-miterlimit="10" stroke-width="6" d="M63 238.6h146.1l-35.4-156H93.1L63 238.6z"/><path fill="none" stroke="#231f20" stroke-miterlimit="10" stroke-width="2" d="M78.4 227h115.4l-28-123.1h-63.6L78.4 227z"/><path fill="#231f20" d="M147.7 193.5a70.7 70.7 0 0 1-23-35 67.6 67.6 0 0 1-2.8-20.9c.1-2.4 0-5.2 1.8-7.1s4.6-2 6.8-2a17.2 17.2 0 0 1 10.8 4.3c12.1 9.9 11.2 30.1 8.5 43.9-3.1 15.4-10 29.6-18.4 42.7-1.8 2.7 2.5 5.2 4.3 2.5 8.2-12.7 15-26.5 18.4-41.3s4-29.1-2-41.8c-4.8-9.9-17.5-19.4-28.8-13.9-6 2.9-6.4 9.1-6.4 15a77.4 77.4 0 0 0 2.7 19.2 76.3 76.3 0 0 0 24.5 37.9c2.5 2.1 6-1.5 3.6-3.5z"/><path fill="#231f20" d="M117.3 129.4l-15.6 5.1a2.5 2.5 0 0 0 0 4.8l14.1 5c3.1 1.1 4.4-3.8 1.3-4.8l-14.1-5v4.8l15.7-5.1c3-.9 1.7-5.8-1.4-4.8zM30.6 243.8a1.2 1.2 0 0 1-.2-.8v-.3c0 .2 0 .1.1-.3l.6-.5a2.5 2.5 0 0 0 2.5 4.3 3.7 3.7 0 0 0 1.3-5 2.6 2.6 0 0 0-3.4-.9 2.6 2.6 0 0 0-.9 3.5zM95.4 79.7l-2.2-6.5-4.6 1.9c4.9 7.6 14.8 4.6 17.2-3.5l-4.6.6a13.5 13.5 0 0 0 4 4.9 2.5 2.5 0 0 0 3.9-.5 26.3 26.3 0 0 1 5-7.3l-4.1-1.1c.5 2.8 1.3 7.8 4.5 8.9s9.6-2.9 12.6-4.2l-3.6-2.9c-1 3.9.8 7 4.5 8.4a2.4 2.4 0 0 0 3.1-2.4 16.1 16.1 0 0 1 3.6-9.7l-4.2-1.2a19.5 19.5 0 0 0 8.6 13.6 2.6 2.6 0 0 0 3.4-.9l7-9.5-4.5-1.9c-1.7 4.4.7 10 5.7 10.6s8.5-4.2 7.8-8.9l-4.6 1.9 4.7 7.9a2.5 2.5 0 0 0 3.4.9l9.5-7-3.7-1.4 3.5 10.2c1.1 3 5.9 1.7 4.9-1.3L172.6 69c-.5-1.3-2.3-2.5-3.7-1.5l-9.4 7 3.4.9c-1.6-2.6-3.1-5.3-4.6-7.9s-5-.7-4.6 1.9-.6 2-2.3.7-2.6-.8-1.6-2.4-3-4-4.6-1.9l-7 9.4 3.4-.9a14.5 14.5 0 0 1-6.2-10.5c-.3-1.8-3.1-2.4-4.2-1.1a21.8 21.8 0 0 0-5.1 13.3l3.2-2.4-1-2.2c.6-2.3-1.8-3.7-3.7-2.8s-5.3 3.1-6.9 2.9-2.5-2.3-2.9-4.6a2.5 2.5 0 0 0-4.2-1.1 30.2 30.2 0 0 0-5.8 8.3l3.9-.5a12.2 12.2 0 0 1-3.2-3.9c-1-1.9-4-1.4-4.6.6-1 3.7-5.4 6.3-8 2.3-1.5-2.3-5.5-.9-4.6 1.9l2.2 6.6c1 3 5.9 1.7 4.9-1.4zm-34.3 160a40.7 40.7 0 0 0-4.6 11.2 2.5 2.5 0 0 0 3 3.1 43 43 0 0 0 14.6-6.2l-3.4-.9a29 29 0 0 0 5.1 8.2c1.6 1.8 4.1.2 4.3-1.8l.9-10.7-4.2 1.8a31.6 31.6 0 0 0 12.7 9.5c1.8.7 3.5-1.4 3-3.1-2-7.2 7.3-2 8.2-1.3s3.7.8 4.2-1.1a19.3 19.3 0 0 1 2-5.2l-3.9.5a39.8 39.8 0 0 0 7.1 7.1 2.4 2.4 0 0 0 3 .4l7.8-5.1-3-.4a37.7 37.7 0 0 0 8.9 7.5 2.6 2.6 0 0 0 3.7-1.5 16.4 16.4 0 0 1 3.6-6.1l-3.1.4a78.3 78.3 0 0 1 10.6 7.1 2.6 2.6 0 0 0 4.3-1.7l1-7.4-3.2 2.4a27 27 0 0 1 12.4 9.7 2.5 2.5 0 0 0 4.3 0 33 33 0 0 0 4.2-8.9l-3.6 1.5a48.6 48.6 0 0 1 7.1 5.6 2.6 2.6 0 0 0 3.9-.5 12.2 12.2 0 0 0 2-7.4l-3.2 2.4 10.9 3a2.5 2.5 0 0 0 3.1-1.7l1.8-8.3-4.6.6c5.2 8.3 18 8 26.6 9.4a2.5 2.5 0 0 0 3.2-2.4V239c0-3.3-5-3.3-5 0v10.4l3.1-2.4c-4.5-.8-9.1-1.4-13.6-2.3s-7.8-1.4-9.9-4.8c-1.1-1.8-4.1-1.6-4.6.6l-1.8 8.3 3.1-1.8-10.9-3a2.5 2.5 0 0 0-3.2 2.4 5.9 5.9 0 0 1-1.3 4.8l3.9-.5a54.9 54.9 0 0 0-8.1-6.3 2.6 2.6 0 0 0-3.7 1.5 30.4 30.4 0 0 1-3.7 7.7h4.3a33.1 33.1 0 0 0-15.4-12c-1.7-.7-3 .9-3.1 2.4l-1 7.4 4.3-1.8a98.9 98.9 0 0 0-11.6-7.9 2.7 2.7 0 0 0-3.1.4 24.3 24.3 0 0 0-4.8 8.2l3.6-1.5a31.2 31.2 0 0 1-7.9-6.6 2.4 2.4 0 0 0-3-.4l-7.8 5.1 3 .4a43.4 43.4 0 0 1-7.1-7.1c-1-1.3-3.2-.8-3.9.5a22.4 22.4 0 0 0-2.5 6.3l4.1-1.1c-3.3-2.8-7.8-5-12.2-3.1a7.9 7.9 0 0 0-4.3 9.3l3.1-3.1a24.1 24.1 0 0 1-10.5-8.2c-1.5-1.9-4.1-.1-4.3 1.8l-.9 10.7 4.3-1.8a24.8 24.8 0 0 1-4.4-7.1 2.5 2.5 0 0 0-3.4-.9 40.8 40.8 0 0 1-13.4 5.7l3.1 3a34.9 34.9 0 0 1 4.2-10c1.6-2.8-2.7-5.3-4.4-2.5z"/><path fill="#231f20" d="M65.2 83.4a25.1 25.1 0 0 1 1.4-6.6l-4.6.6c2.1 3.1 6.5 13.6 11.4 8.4.7-.7 1.7-4.1 2.9-4s1.9 2.2 2.5 2.6c2.8 1.6 6.6-2.1 8.8.2s5.8-1.2 3.6-3.5a7.7 7.7 0 0 0-6.3-2.7c-.7.1-3.2 1.4-3.6 1.2s-1.2-1.2-1.9-1.7a4.8 4.8 0 0 0-5.2-1.1c-3 1.1-2.7 4.5-4.9 5.9h2.5c-1.9-.9-4.3-6-5.5-7.8a2.6 2.6 0 0 0-4.6.6 35.6 35.6 0 0 0-1.5 7.9c-.3 3.2 4.7 3.2 5 0zM31.3 247c0 3.7-1.8 12.3 3.8 13.3s10.4-5.2 13.3-8.1l-4-.5a48.3 48.3 0 0 0 4.1 4.9 2.5 2.5 0 0 0 3.9-.5c1-1.3.2-3 1-4.1l-2.2 1.2c.5 0 1.6 1.9 2.1 2.2a5 5 0 0 0 3.6 1.1c3.3-.2 5.2-2.8 6.7-5.4s-2.7-5.3-4.3-2.5-2 2.5-3.6 2l-.9-1.2a3.9 3.9 0 0 0-3.9-1.2c-3.3 1-1.4 3.5-2.8 5.4l3.9-.5a25.5 25.5 0 0 1-3.2-4 2.6 2.6 0 0 0-4-.5c-1.7 1.8-4.9 5.7-7.4 6s-1 .9-1.1-1.8 0-3.9 0-5.8-5-3.3-5 0z"/></svg>
