<svg xmlns="http://www.w3.org/2000/svg"><symbol id="artboard-2" viewBox="150 0 100 180"><path fill="none" stroke="#231f20" stroke-miterlimit="10" stroke-width="2.67" d="M176.5 167.2h-65l13.4-69.4h35.9l15.7 69.4z"/><path fill="#231f20" d="M127.8 97c1.7-4.3 1.9-9.2 4.2-13.3s10.5-7.5 15.6-5.6 11.2 7 10.3 13.2c-.5 2.8-1.4 4.6 0 7.3a1.1 1.1 0 1 0 1.9-1.1c-1.5-2.8.8-5.9.5-8.9a11.1 11.1 0 0 0-2.4-5.7c-2.8-3.4-8-7.3-12.5-7.6S135 76.7 132 79.8s-4.1 11.2-6.3 16.6c-.6 1.3 1.6 1.9 2.1.6zm21.4 50.2a32.5 32.5 0 0 1-9.8-14.2 30.6 30.6 0 0 1-1.7-8.5c-.1-2.4-.1-2.8 2-4.6s2.1-2.2 3.7-1.2a6.4 6.4 0 0 1 3.8 2.2c4.8 5 4 14.1 2.6 20.4s-4.5 12-7.9 17.4c-.8 1.2 1.2 2.3 1.9 1.1 5-7.7 8.8-16.4 9.2-25.7.3-7-1.8-16.4-9.8-17.9s-8.2 5.7-7.4 11.5a34.3 34.3 0 0 0 11.8 21c1.1 1 2.7-.6 1.6-1.5z"/><path fill="#231f20" d="M135.7 118.6l-7 2.3a1.1 1.1 0 0 0 0 2.1l6.3 2.2c1.3.5 1.9-1.6.6-2.1l-6.3-2.2v2.1l6.9-2.2c1.4-.5.8-2.6-.5-2.2z"/></symbol><symbol id="artboard-3" viewBox="0 0 288 288"><path fill="#231f20" d="M114.4 142.3a52.3 52.3 0 0 0 18-31.6c.7-4.4 2-11.4-.6-15.5s-8-4.1-12-2.9c-11.5 3.4-14.2 17-13.8 27.4.5 14.3 6.5 27.8 14.2 39.8 1.2 1.8 4.2.1 3-1.8-5.6-8.7-10.3-18-12.5-28.2s-3-23.2 4.7-30.7a13.2 13.2 0 0 1 6.7-3.5c4.6-.9 7 2.2 7.6 6.5s-.7 9.8-2 14a49.5 49.5 0 0 1-15.8 24.1c-1.7 1.4.8 3.8 2.5 2.4z"/><path fill="#231f20" d="M131.9 99.1l10.8 3.4v-3.3l-9.8 3.5c-2 .7-1.1 4 1 3.3l9.7-3.5a1.7 1.7 0 0 0 0-3.3l-10.8-3.5c-2.1-.6-3 2.7-.9 3.4z"/><circle cx="143.1" cy="120.6" r="7.3" fill="none" stroke="#231f20" stroke-miterlimit="10" stroke-width="2.94"/><path fill="#231f20" d="M136 124.4a66.3 66.3 0 0 1-7.3 5.8c-.8.6-.1 1.8.7 1.3a63.4 63.4 0 0 0 7.6-6.1c.7-.6-.3-1.7-1-1zm9.5-3.8h-.2v-.7l.3-.2.6.2v.2c-.3-.8-1.8-.5-1.4.4s2.7-.1 1.3-1-1.5.7-.7 1.2zm-3-2.8a2.7 2.7 0 0 1 2.6.4c.7.6 1.8-.5 1-1.1a4.4 4.4 0 0 0-4-.8.8.8 0 0 0 .4 1.5z"/></symbol><symbol id="artboard-1" viewBox="0 0 288 288"><path fill="transparent" stroke="#231f20" stroke-miterlimit="10" stroke-width="4.14" d="M153.3 166.1h-27.2c-4.2 0-15-2.9-15-7.1l-13.8-34a7.6 7.6 0 0 1 7.6-7.6h48.4a7.6 7.6 0 0 1 7.6 7.6v33.5a7.6 7.6 0 0 1-7.6 7.6z"/><path fill="transparent" stroke="#231f20" stroke-miterlimit="10" stroke-width="1.38" d="M112.6 135h10v6.72h-10zm15.3 0h10v6.72h-10zm15.5 0h10v6.72h-10zm0 13.6h10v6.72h-10zm-15.5 0h10v6.72h-10zm-13.3 0h10v6.72h-10z"/><path fill="#231f20" d="M99.9 121.4a25.4 25.4 0 0 0-9.5-14.6c-3.6-2.7-10.9-6.6-15.5-4.1s-4.7 10.3-2.7 14c.9 1.5 2.2 2.9 4.1 2.8s2.7-2.2 4-3.7-.9-3.6-2.1-2.2a15.9 15.9 0 0 1-1.1 1.6c-3.8 1.1-2.9-5.2-2.5-6.6 1.1-5.3 7.2-3.2 10.7-1.5A22.9 22.9 0 0 1 97 122.2c.4 1.9 3.3 1.1 2.9-.8zm32.8-3.6c6.5 1.9 12.7-1.7 16.1-7.2 2.2-3.6 3.2-7.8 4-11.9s1.7-11.8 8.3-13.3c3-.7 7.3-.3 9.9 1.5 4.2 3 3.6 7.2 1.3 11a23.5 23.5 0 0 0-3.6 10.3c-.9 9.1 2.8 21.9-6.3 28-1.5 1 0 3.6 1.6 2.5 8-5.3 7.7-15.2 7.6-23.8a35.9 35.9 0 0 1 .8-10.3c.9-3.1 3-5.3 4.2-8.2a9.4 9.4 0 0 0-1.6-9.9c-5.3-6.1-17.9-6.1-22.1 1.1-2.5 4.3-2.7 9.7-3.9 14.3-1.8 7-6.9 15.5-15.5 13-1.8-.6-2.6 2.3-.8 2.9z"/><path fill="#231f20" d="M177.3 90.4a31 31 0 0 0 8 1.8l-.6-4.4-6.8 1.6c-2.8.6-1.6 4.9 1.2 4.3l6.8-1.6c2.6-.6 1.8-4.1-.6-4.4a25.9 25.9 0 0 1-6.8-1.6c-2.7-1.1-3.9 3.3-1.2 4.3z"/><ellipse cx="117.6" cy="177.3" fill="none" stroke="#231f20" stroke-miterlimit="10" stroke-width="2.3" rx="7.4" ry="8.8"/><ellipse cx="158.3" cy="177.3" fill="none" stroke="#231f20" stroke-miterlimit="10" stroke-width="2.3" rx="7.4" ry="8.8"/></symbol><symbol id="artboard-4" viewBox="0 0 288 288"><path fill="none" stroke="#231f20" stroke-miterlimit="10" stroke-width="2.75" d="M131 86.8h-13.1l-13.8 71.4h-.7 23.7"/><path fill="none" stroke="#231f20" stroke-miterlimit="10" stroke-width="2.75" d="M117.7 156h66.9l-16.2-71.4h-36.9L117.7 156z"/><path fill="none" stroke="#231f20" stroke-miterlimit="10" stroke-width=".92" d="M124.7 150.7h52.8l-12.8-56.3h-29.1l-10.9 56.3z"/><path fill="#231f20" d="M156.4 135.4a34.2 34.2 0 0 1-10-14.5 29.2 29.2 0 0 1-1.7-8.8c-.2-2.7-.4-5.9 4-6.5 2.3-.3 5.2 2.2 6.5 3.9 8 10.8-.1 28-6.2 37.7a1.1 1.1 0 0 0 1.9 1.2c5.3-8.2 9.3-17.4 9.5-27.3.1-6.9-2.1-15.9-10-17.5s-8.5 5.6-7.7 11.6a35.2 35.2 0 0 0 12.1 21.8c1.1.9 2.8-.7 1.6-1.6z"/><path fill="#231f20" d="M142.5 106.1l-7.1 2.3a1.1 1.1 0 0 0 0 2.2l6.5 2.3c1.3.5 1.9-1.8.6-2.2l-6.5-2.3v2.2l7.2-2.3c1.3-.5.8-2.7-.7-2.2zm-39.7 52.3l.3-.9a1.2 1.2 0 0 0-.4 1.6 1 1 0 0 0 1.5.4 1.8 1.8 0 0 0 .6-2.3 1.2 1.2 0 0 0-1.6-.4 1.4 1.4 0 0 0-.4 1.6zm29.7-75.1l-1-3-1.9 1.1c2.7 3.2 6.3 1.8 7.7-1.8l-2.1.3a6.5 6.5 0 0 0 1.8 2.2 1.1 1.1 0 0 0 1.8-.2 9.8 9.8 0 0 1 2.3-3.4l-1.9-.5a7.6 7.6 0 0 0 1.4 3.6 1.2 1.2 0 0 0 1.3.5c1.8-.2 3.5-1.2 5.1-1.9l-1.7-1a3.2 3.2 0 0 0 1.8 3.4 1.3 1.3 0 0 0 1.8-1 6.7 6.7 0 0 1 1.8-4.7l-2.1-.3a9.2 9.2 0 0 0 3.9 6.2 1.2 1.2 0 0 0 1.6-.4l3.2-4.3-2.1-.9c-1.3 5.4 6.3 6.5 6.2 1.1l-2.1.6 2.1 3.6a1.2 1.2 0 0 0 1.6.4l4.3-3.2-1.7-.7 1.7 4.7c.4 1.4 2.7.8 2.2-.6l-1.7-4.7a1.1 1.1 0 0 0-1.6-.7l-4.4 3.2 1.6.4-2.1-3.6a1.2 1.2 0 0 0-2.2.6l-1.7-.5a1.2 1.2 0 0 0-2.1-.9l-3.2 4.4 1.6-.5a6.2 6.2 0 0 1-2.9-4.8c-.2-1-1.6-1-2.1-.2a10 10 0 0 0-2.1 5.8l1.7-1-.7-1.4c.1-1-1-1.3-1.7-1s-3.9 2.1-4.5-.8a1.2 1.2 0 0 0-1.9-.5 20.2 20.2 0 0 0-2.7 3.8l1.8-.2-1.5-1.8a1.2 1.2 0 0 0-2.1.3l-3.8.8c-.8-.8-2.3.1-1.9 1.1l1 3c.4 1.4 2.7.8 2.2-.6zm-15.7 73.2a23.6 23.6 0 0 0-2.1 5.2c-.3.8.6 1.6 1.4 1.4a21.8 21.8 0 0 0 6.6-2.9l-1.5-.4a16 16 0 0 0 2.3 3.8c.7.8 1.9 0 2-.8l.4-4.9-1.9.8a14.2 14.2 0 0 0 5.5 4.2 1.2 1.2 0 0 0 1.7-1.3l4-.4a1.2 1.2 0 0 0 1.7-.7l.9-2.4-1.8.3a24.2 24.2 0 0 0 3.2 3.2 1.2 1.2 0 0 0 1.4.2c1.4-.9 1.8-1.5 3.4-1.3a31.5 31.5 0 0 1 2.9 2.2 1.2 1.2 0 0 0 1.7-.7c1.3-3.5 3.6-.4 5.3.8s1.6-.2 1.7-.9l.5-3.4-1.8 1a13 13 0 0 1 6 4.6 1.3 1.3 0 0 0 2 0 21.7 21.7 0 0 0 1.9-4.1l-1.7.7a15.9 15.9 0 0 1 3.3 2.5 1.1 1.1 0 0 0 1.8-.2 5.8 5.8 0 0 0 .9-3.4l-1.5 1.1 5 1.4a1.2 1.2 0 0 0 1.4-.8l.9-3.8-2.1.3c2.8 3.7 7.9 3.6 12.1 4.3a1.2 1.2 0 0 0 1.5-1.1v-4.8a1.2 1.2 0 0 0-2.3 0v4.8l1.4-1.1c-3.1-.6-8.7-.6-10.8-3.3a1.2 1.2 0 0 0-2.1.3l-.8 3.8 1.4-.8-5-1.4a1.1 1.1 0 0 0-1.4 1.1l-.6 2.2 1.8-.2a33.7 33.7 0 0 0-3.7-2.9 1.2 1.2 0 0 0-1.7.7 12.6 12.6 0 0 1-1.7 3.5h2a15.6 15.6 0 0 0-6.8-5.4 1.1 1.1 0 0 0-1.7 1l-.5 3.4 1.8-1a57.6 57.6 0 0 0-5.1-3.5 1.2 1.2 0 0 0-1.4.2 11.1 11.1 0 0 0-2.2 3.8l1.6-.7a13.1 13.1 0 0 1-3.6-3 1.1 1.1 0 0 0-1.4-.2c-2.8 1.8-3.2 1.9-5.4-.7a1.1 1.1 0 0 0-1.8.2 14.8 14.8 0 0 0-1.2 2.9l1.7-.7c-3.1-2.3-8-1.8-7.3 3l1.7-1.3a12.9 12.9 0 0 1-5.1-3.9c-.7-.8-1.9 0-1.9.9l-.5 4.9 2-.9a8.3 8.3 0 0 1-2-3.2 1.2 1.2 0 0 0-1.6-.4 22 22 0 0 1-6.1 2.6l1.4 1.4a14.4 14.4 0 0 1 1.9-4.6c.7-1.3-1.3-2.5-2-1.2z"/><path fill="#231f20" d="M118.7 85a14.5 14.5 0 0 1 .6-3l-2.1.3c1 1.3 3 6.2 5.2 3.8.4-.3.8-1.9 1.3-1.9s.9 1.1 1.2 1.2 3.1-.9 4.1.1 2.6-.5 1.6-1.6a3.6 3.6 0 0 0-2.9-1.2c-.3 0-1.4.6-1.6.6s-.6-.6-.9-.8a2.2 2.2 0 0 0-2.4-.5c-1.4.5-1.2 2-2.2 2.7h1.1c-.9-.4-1.9-2.8-2.5-3.6a1.2 1.2 0 0 0-2.1.3 15.3 15.3 0 0 0-.7 3.6c-.1 1.5 2.2 1.5 2.3 0zm-15.5 74.8c0 1.7-.8 5.1 1.2 6s5.3-2.2 6.6-3.6l-1.8-.2 1.8 2.3a1.2 1.2 0 0 0 1.8-.2c.5-.7.1-1.4.5-2l-1 .6c.2 0 .7.9.9 1a2.6 2.6 0 0 0 1.9.5c1.4-.2 2.2-1.3 2.9-2.5s-1.3-2.4-2-1.1-.9 1.2-1.7.9-.2-.5-.4-.5-.9-.8-1.8-.6-.6 1.6-1.2 2.5l1.8-.2a9 9 0 0 1-1.5-1.9 1.2 1.2 0 0 0-1.8-.2c-.8.8-2.4 2.7-3.5 2.7s-.4-.4-.4-1.2v-2.3a1.2 1.2 0 0 0-2.3 0z"/></symbol></svg>
