<svg xmlns="http://www.w3.org/2000/svg"><symbol id="artboard-1" viewBox="0 0 122.3 122.4"><path fill="none" stroke="#231f20" stroke-miterlimit="10" stroke-width="4.14" d="M86 92.5H58.8c-4.2 0-14.9-2.9-14.9-7.1l-13.8-34a7.6 7.6 0 0 1 7.6-7.6H86a7.6 7.6 0 0 1 7.6 7.6v33.5a7.6 7.6 0 0 1-7.6 7.6z"/><path fill="none" stroke="#231f20" stroke-miterlimit="10" stroke-width="1.38" d="M45.3 61.4h10v6.72h-10zm15.4 0h10v6.72h-10zm15.4 0h10v6.72h-10zm0 13.6h10v6.72h-10zm-15.4 0h10v6.72h-10zm-13.4 0h10v6.72h-10z"/><path fill="#231f20" d="M32.6 47.8a25.2 25.2 0 0 0-9.5-14.6c-3.5-2.7-10.8-6.6-15.4-4.1S3 39.4 5 43.1A4.9 4.9 0 0 0 9.1 46c2.5-.1 2.7-2.2 4-3.8s-.9-3.6-2.1-2.1a14.9 14.9 0 0 0-1.1 1.5c-3.8 1.2-2.9-5.1-2.6-6.5 1.2-5.4 7.3-3.3 10.8-1.5a22.5 22.5 0 0 1 11.7 15c.4 1.9 3.3 1.1 2.8-.8zm32.9-3.6c6.4 1.9 12.7-1.7 16-7.2 2.2-3.6 3.2-7.7 4.1-11.8s1.7-11.8 8.2-13.3c3.1-.7 7.4-.3 10 1.5 4.2 2.9 3.6 7.2 1.3 10.9a24.4 24.4 0 0 0-3.6 10.4c-.9 9 2.7 21.8-6.3 27.9-1.6 1.1-.1 3.7 1.5 2.6 8-5.4 7.8-15.2 7.6-23.9 0-3.4-.1-6.9.9-10.2s3-5.4 4.2-8.3a9.4 9.4 0 0 0-1.6-9.8c-5.3-6.2-17.9-6.2-22.2 1.1-2.5 4.2-2.6 9.6-3.8 14.3-1.8 6.9-7 15.4-15.5 12.9-1.8-.5-2.6 2.4-.8 2.9z"/><path fill="#231f20" d="M110 16.8a28 28 0 0 0 8.1 1.8l-.6-4.4-6.8 1.6c-2.8.7-1.6 5 1.2 4.3l6.8-1.5c2.6-.6 1.7-4.2-.6-4.4a31.7 31.7 0 0 1-6.9-1.7c-2.7-1-3.8 3.3-1.2 4.3z"/><ellipse cx="50.3" cy="103.7" fill="none" stroke="#231f20" stroke-miterlimit="10" stroke-width="2.3" rx="7.4" ry="8.8"/><ellipse cx="91" cy="103.7" fill="none" stroke="#231f20" stroke-miterlimit="10" stroke-width="2.3" rx="7.4" ry="8.8"/></symbol><symbol id="artboard-4" viewBox="0 0 97.2 97.2"><path fill="#231f20" d="M35.7 10.2l-1-3-1.9 1.1c2.7 3.2 6.2 1.8 7.6-1.8l-2 .3A6.5 6.5 0 0 0 40.2 9a1.1 1.1 0 0 0 1.8-.2 9.8 9.8 0 0 1 2.3-3.4l-1.9-.5a7.6 7.6 0 0 0 1.4 3.6 1.2 1.2 0 0 0 1.3.5c1.8-.2 3.5-1.2 5.1-1.9l-1.7-1a3 3 0 0 0 1.8 3.4 1.3 1.3 0 0 0 1.8-1 6.7 6.7 0 0 1 1.8-4.7l-2.1-.3a9.2 9.2 0 0 0 3.9 6.2 1.2 1.2 0 0 0 1.6-.4L60.5 5l-2.1-.9c-1.3 5.4 6.3 6.5 6.2 1.1l-2.1.6 2.1 3.6a1.2 1.2 0 0 0 1.6.4l4.3-3.2-1.7-.7 1.7 4.7c.4 1.4 2.7.8 2.2-.6L71 5.3a1.1 1.1 0 0 0-1.6-.7L65 7.8l1.6.4-2.1-3.6a1.2 1.2 0 0 0-2.2.6l-1.7-.5a1.2 1.2 0 0 0-2.1-.9l-3.2 4.4 1.5-.5A6.4 6.4 0 0 1 54 2.9c-.2-1-1.6-1-2.1-.2a10 10 0 0 0-2.1 5.8l1.7-1-.7-1.4c.1-1-1-1.3-1.7-1s-3.9 2.1-4.5-.8a1.2 1.2 0 0 0-1.9-.5A16.5 16.5 0 0 0 40 7.6l1.8-.2-1.5-1.8a1.2 1.2 0 0 0-2.1.3l-3.8.8c-.8-.8-2.3.1-1.9 1.1l1 3c.4 1.4 2.7.8 2.2-.6z"/><path fill="#231f20" d="M21.9 11.9a14.5 14.5 0 0 1 .6-3l-2.1.3c1 1.3 3 6.2 5.2 3.8.4-.3.8-1.9 1.3-1.9s.9 1.1 1.2 1.2 3.1-.9 4 .1a1.2 1.2 0 0 0 1.7-1.6 3.6 3.6 0 0 0-2.9-1.2c-.3 0-1.4.6-1.6.6s-.6-.6-.9-.8a2.2 2.2 0 0 0-2.4-.5c-1.4.5-1.2 2-2.3 2.7h1.2C24 11.2 23 8.8 22.4 8a1.2 1.2 0 0 0-2.1.3 15.3 15.3 0 0 0-.7 3.6c-.1 1.5 2.2 1.5 2.3 0z"/><path fill="none" stroke="#231f20" stroke-miterlimit="10" stroke-width="2.75" d="M33.2 13.8H20.1L6.3 85.2h-.7 23.7"/><path fill="none" stroke="#231f20" stroke-miterlimit="10" stroke-width="2.75" d="M19.9 83h66.9L70.6 11.6H33.7L19.9 83z"/><path fill="none" stroke="#231f20" stroke-miterlimit="10" stroke-width=".92" d="M26.9 77.7h52.8L66.9 21.3H37.8L26.9 77.7z"/><path fill="#231f20" d="M58.6 62.3a34.2 34.2 0 0 1-10-14.5 28.6 28.6 0 0 1-1.7-8.7c-.2-2.7-.4-5.9 4-6.5 2.3-.3 5.2 2.1 6.5 3.8 8 10.9-.1 28.1-6.2 37.8-.8 1.2 1.2 2.4 1.9 1.1 5.3-8.2 9.3-17.4 9.5-27.3.1-6.9-2.1-15.8-10-17.5s-8.5 5.7-7.7 11.7A34.9 34.9 0 0 0 57 63.9c1.1 1 2.8-.6 1.6-1.6z"/><path fill="#231f20" d="M44.7 33l-7.1 2.3a1.1 1.1 0 0 0 0 2.2l6.5 2.3c1.3.5 1.9-1.7.6-2.2l-6.5-2.3v2.2l7.2-2.3a1.2 1.2 0 0 0-.7-2.2zM19 83.5a22.8 22.8 0 0 0-2.1 5.1 1.1 1.1 0 0 0 1.4 1.4 23.2 23.2 0 0 0 6.7-2.8l-1.6-.4a17.6 17.6 0 0 0 2.3 3.7c.7.9 1.9.1 2-.8l.4-4.9-1.9.8a15.5 15.5 0 0 0 5.5 4.3 1.2 1.2 0 0 0 1.7-1.3l4-.5a1.1 1.1 0 0 0 1.7-.6l.9-2.4-1.8.2a25 25 0 0 0 3.2 3.3 1.2 1.2 0 0 0 1.4.2c1.4-.9 1.8-1.6 3.4-1.3a30.6 30.6 0 0 1 2.9 2.1 1.1 1.1 0 0 0 1.7-.6c1.3-3.5 3.6-.5 5.3.8s1.6-.2 1.7-1l.5-3.4-1.8 1a13.7 13.7 0 0 1 6 4.6 1.2 1.2 0 0 0 2 0 19.2 19.2 0 0 0 1.9-4.1l-1.7.7a16.4 16.4 0 0 1 3.3 2.6 1.2 1.2 0 0 0 1.8-.3 5.5 5.5 0 0 0 .9-3.3l-1.5 1.1 5 1.3a1.1 1.1 0 0 0 1.4-.8l.9-3.8-2.1.3c2.8 3.7 7.9 3.6 12.1 4.3.8.1 1.5-.3 1.5-1.1v-4.8a1.2 1.2 0 0 0-2.3 0v4.8l1.4-1.1c-3.1-.5-8.7-.5-10.8-3.2a1.2 1.2 0 0 0-2.1.2l-.8 3.8 1.4-.8-5-1.3a1.1 1.1 0 0 0-1.4 1.1l-.6 2.2 1.8-.3a33.7 33.7 0 0 0-3.7-2.9 1.2 1.2 0 0 0-1.7.7 11.9 11.9 0 0 1-1.7 3.6h2a16.6 16.6 0 0 0-6.8-5.5 1.2 1.2 0 0 0-1.7 1l-.5 3.4 1.8-1a56.5 56.5 0 0 0-5.1-3.4 1.2 1.2 0 0 0-1.4.2 11.7 11.7 0 0 0-2.2 3.7l1.6-.6a11.9 11.9 0 0 1-3.6-3.1 1.4 1.4 0 0 0-1.4-.2c-2.8 1.9-3.2 1.9-5.4-.7a1.2 1.2 0 0 0-1.8.2 17.8 17.8 0 0 0-1.2 2.9l1.7-.6c-3.1-2.4-8-1.8-7.3 3l1.7-1.3a13.9 13.9 0 0 1-5.1-3.9 1.1 1.1 0 0 0-1.9.8l-.5 4.9 2-.8a9.4 9.4 0 0 1-2-3.3 1.3 1.3 0 0 0-1.6-.4 19.4 19.4 0 0 1-6.1 2.6l1.4 1.4a16.6 16.6 0 0 1 1.9-4.6 1.1 1.1 0 0 0-2-1.1z"/><path fill="#231f20" d="M5.4 86.8c0 1.7-.8 5.1 1.2 6s5.3-2.3 6.6-3.6l-1.8-.2 1.8 2.2A1.1 1.1 0 0 0 15 91c.5-.6.1-1.4.5-1.9l-1 .6c.2-.1.7.8.9 1a3.2 3.2 0 0 0 1.9.5c1.4-.2 2.2-1.4 2.9-2.5s-1.3-2.4-2-1.2-.9 1.2-1.7 1-.2-.5-.4-.6-.9-.8-1.8-.5-.6 1.6-1.2 2.5l1.8-.3a6.5 6.5 0 0 1-1.5-1.8 1.1 1.1 0 0 0-1.8-.2c-.8.7-2.4 2.7-3.5 2.6s-.4-.3-.4-1.2v-2.2a1.2 1.2 0 0 0-2.3 0z"/></symbol><symbol id="artboard-2" viewBox="0 0 95.8 95.9"><path fill="none" stroke="#231f20" stroke-miterlimit="10" stroke-width="2.67" d="M79.5 92H14.4l13.4-69.4h35.9L79.5 92z"/><path fill="#231f20" d="M30.7 21.8c1.8-4.3 1.9-9.2 4.2-13.3S45.4 1 50.5 2.9s11.3 7 10.3 13.2c-.5 2.8-1.4 4.6 0 7.3s2.6.1 1.9-1.1c-1.5-2.9.8-5.9.5-8.9a10.8 10.8 0 0 0-2.4-5.7C58.1 4.3 52.8.4 48.3 0S37.9 1.4 34.9 4.6s-4.1 11.2-6.3 16.6c-.5 1.3 1.6 1.9 2.1.6zm21.4 50.1a31.7 31.7 0 0 1-9.8-14.1 30.4 30.4 0 0 1-1.6-8.5c-.2-2.5-.2-2.8 1.9-4.6s2.1-2.2 3.7-1.2a6 6 0 0 1 3.8 2.2c4.8 5 4.1 14.1 2.6 20.3a57.5 57.5 0 0 1-7.9 17.5c-.8 1.2 1.2 2.3 1.9 1.1 5-7.8 8.9-16.4 9.2-25.7.3-7-1.8-16.4-9.8-18s-8.2 5.8-7.4 11.5a34.3 34.3 0 0 0 11.8 21.1c1.1.9 2.7-.6 1.6-1.6z"/><path fill="#231f20" d="M38.6 43.4l-7 2.2a1.2 1.2 0 0 0 0 2.2l6.3 2.2c1.4.5 1.9-1.6.6-2.1l-6.3-2.3v2.2l7-2.2c1.3-.5.7-2.6-.6-2.2z"/></symbol><symbol id="artboard-3" viewBox="0 0 78.5 78.5"><path fill="#231f20" d="M22.9 52.4A52 52 0 0 0 41 20.8c.7-4.4 2-11.4-.7-15.5s-8-4.1-11.9-2.9c-11.5 3.4-14.2 17-13.8 27.4.5 14.4 6.5 27.8 14.1 39.8 1.2 1.8 4.2.1 3-1.8-5.6-8.7-10.2-18-12.4-28.2s-3-23.2 4.7-30.7a13.2 13.2 0 0 1 6.7-3.5c4.5-.9 6.9 2.2 7.5 6.5s-.6 9.8-1.9 14A49.1 49.1 0 0 1 20.5 50c-1.7 1.4.7 3.8 2.4 2.4z"/><path fill="#231f20" d="M40.5 9.2l10.8 3.4V9.3l-9.8 3.5c-2.1.7-1.2 4 .9 3.3l9.8-3.5a1.7 1.7 0 0 0 0-3.3L41.4 5.9c-2.1-.7-3 2.6-.9 3.3z"/><circle cx="51.7" cy="30.7" r="7.3" fill="none" stroke="#231f20" stroke-miterlimit="10" stroke-width="2.94"/><path fill="#231f20" d="M44.5 34.5a58.1 58.1 0 0 1-7.3 5.8c-.7.6 0 1.9.8 1.3a63.4 63.4 0 0 0 7.6-6.1c.7-.6-.4-1.7-1.1-1zm9.6-3.8h-.2V30l.3-.2.5.2v.2c-.3-.8-1.7-.5-1.4.4s2.7-.1 1.4-1-1.5.7-.7 1.2zm-3-2.8a2.7 2.7 0 0 1 2.6.4c.7.6 1.7-.5 1-1.1a4.4 4.4 0 0 0-4-.8c-.9.3-.5 1.8.4 1.5z"/></symbol></svg>
