<svg id="Layer_1" data-name="Layer 1" xmlns="http://www.w3.org/2000/svg" width="1in" height="0.9in" viewBox="0 0 70 64.1"><title>logo-32</title><path d="M48.6,50.8A44.9,44.9,0,0,1,27.3,34.9a34.8,34.8,0,0,1-6-12.2c-1.4-6.1,1.7-10.1,6-14l2.5-2.3,1.4-1.1c.6-.7.8-.7.5-.1s2.5,4.6,2.9,5.6A32.3,32.3,0,0,1,36,24.6c-1,10.8-5.6,21-4.7,32,0,.3,3.3-.1,3.3-.5-1-13.1,5.7-25.3,4.8-38.3C39,12.5,36.9,1.4,29.5,4.6c-3.8,1.7-9,7-10.9,10.7-2.7,5.4.2,11.7,3,16.5A44.3,44.3,0,0,0,45.4,51.4c.9.3,2.9-.8,3.2-.6Z" fill="#e9f6f6"/><path d="M30.6,10a.9.9,0,0,0,0-1.7.9.9,0,0,0,0,1.7Z" fill="#e9f6f6"/><path d="M28.4,4.5a23.2,23.2,0,0,0-8.3-1.1.8.8,0,0,0-.6,1.4l4.3,5.3c.7.8,1.9-.4,1.2-1.2L20.7,3.6l-.6,1.5a20.5,20.5,0,0,1,7.8,1.1c1.1.4,1.5-1.3.5-1.7Z" fill="#e9f6f6"/></svg>