<svg id="Layer_1" data-name="Layer 1" xmlns="http://www.w3.org/2000/svg" width="1.2in" height="1.6in" viewBox="0 0 86.6 114.7"><title>logo</title><path d="M72.5,98.6A83,83,0,0,1,39,76.9c-8.6-9.3-17.3-22.1-18.6-35.1-.8-8,2.9-13.7,8.4-19.2,2.8-2.7,5.7-5.3,8.6-7.7l2.1-1.7.7-.6c.9-.6.9-.7.1-.3s1.7,3.2,2,3.7c7.6,11.5,7.7,26.3,5.6,39.6-2.8,18.1-9.7,35.4-8,54.1,0,.4,6.3-.3,6.2-1.1-1.7-18.9,5.5-36.5,8.2-54.8,1.1-7.8,1.5-15.7.2-23.4-1.1-5.9-3.6-15.6-8.9-19.2-2.8-1.8-7.6-.5-10.3,1.2A72.5,72.5,0,0,0,17.6,29.2C8.4,42.1,18.8,60.2,27,71A84.3,84.3,0,0,0,66.5,99.8c1.6.6,5.4-1.4,6-1.2Z" fill="#e9f6f6"/><path d="M38.6,21.8c2,0,2-3.2,0-3.2a1.6,1.6,0,0,0,0,3.2Z" fill="#e9f6f6"/><path d="M34.4,11.6c-5-2-10.2-2.2-15.5-2.2-1.5-.1-2,1.6-1.2,2.7L25.8,22c1.3,1.6,3.6-.7,2.3-2.2L20,9.8l-1.1,2.7c5,0,9.9.3,14.7,2.1,1.9.7,2.7-2.3.8-3Z" fill="#e9f6f6"/></svg>