<svg id="Layer_1" data-name="Layer 1" xmlns="http://www.w3.org/2000/svg" width="0.2in" height="0.2in" viewBox="0 0 16 16"><title>logo-16</title><path d="M9.1,11.9C6,10.7.9,5.3,6.2,3H5.7c2.7,2,0,7.3.1,9.9h.7c-.2-2.7,1.5-5.5.7-8.3C7,3.8,6.7,2.9,5.7,3A4,4,0,0,0,4.1,4.3a2.4,2.4,0,0,0-.5,3.1A8.2,8.2,0,0,0,8.5,12c.2.1.6-.1.6-.1Z" fill="#e9f6f6"/><path d="M5.7,4.1a.1.1,0,1,0,0-.3.1.1,0,0,0,0,.3Z" fill="#e9f6f6"/><path d="M5.3,3.1a4.1,4.1,0,0,0-1.6-.2c-.1,0-.2.1-.1.2l.8,1c.2.2.4,0,.3-.2l-.9-1v.3a3.9,3.9,0,0,1,1.5.2c.2.1.3-.2.1-.3Z" fill="#e9f6f6"/></svg>