<svg id="Layer_1" data-name="Layer 1" xmlns="http://www.w3.org/2000/svg" width="0.4in" height="0.4in" viewBox="0 0 31.7 32"><title>logo-64</title><path d="M20.8,24.9C13.6,22.2,2.1,9.8,14.2,4.7H12.9c6.2,4.5.1,16.7.4,22.6,0,.1,1.5,0,1.5-.2-.3-6.3,3.3-12.6,1.7-18.8-.5-2.1-1.2-4.1-3.4-3.7S10.3,6.5,9.4,7.6,7,11.7,8.1,14.7c2,5,6.4,8.6,11.4,10.5.3.1,1.2-.4,1.3-.3Z" fill="#e9f6f6"/><path d="M13,7.2a.4.4,0,1,0,0-.7.4.4,0,1,0,0,.7Z" fill="#e9f6f6"/><path d="M12.1,4.8a11.2,11.2,0,0,0-3.6-.5.4.4,0,0,0-.3.6l1.9,2.3c.3.4.8-.1.5-.5L8.7,4.4,8.5,5a10,10,0,0,1,3.4.5c.4.2.6-.5.2-.7Z" fill="#e9f6f6"/></svg>